<?xml version="1.0" standalone="no"?><!DOCTYPE svg PUBLIC "-//W3C//DTD SVG 1.1//EN" "http://www.w3.org/Graphics/SVG/1.1/DTD/svg11.dtd"><svg t="1625712579323" class="icon" viewBox="0 0 1024 1024" version="1.1" xmlns="http://www.w3.org/2000/svg" p-id="1101" data-spm-anchor-id="a313x.7781069.0.i1" xmlns:xlink="http://www.w3.org/1999/xlink" width="200" height="200"><defs><style type="text/css"></style></defs><path d="M952.027429 0c39.716571 0 71.972571 32.182857 71.972571 71.972571v880.054858c0 39.716571-32.182857 71.972571-71.972571 71.972571H71.972571A71.972571 71.972571 0 0 1 0 952.027429V71.972571C0 32.256 32.182857 0 71.972571 0h880.054858z m0 71.972571H71.972571v880.054858h880.054858V71.972571z" fill="#303030" p-id="1102"></path><path d="M1024 219.428571v73.142858H0V219.428571z" fill="#303030" p-id="1103" data-spm-anchor-id="a313x.7781069.0.i2" class="selected"></path><path d="M182.857143 146.285714m-73.142857 0a73.142857 73.142857 0 1 0 146.285714 0 73.142857 73.142857 0 1 0-146.285714 0Z" fill="#303030" p-id="1104"></path><path d="M329.142857 146.285714m-73.142857 0a73.142857 73.142857 0 1 0 146.285714 0 73.142857 73.142857 0 1 0-146.285714 0Z" fill="#303030" p-id="1105"></path><path d="M475.428571 146.285714m-73.142857 0a73.142857 73.142857 0 1 0 146.285715 0 73.142857 73.142857 0 1 0-146.285715 0Z" fill="#303030" p-id="1106"></path><path d="M299.446857 416.182857a38.765714 38.765714 0 0 1 51.053714-7.606857 31.670857 31.670857 0 0 1 8.704 46.299429l-0.365714 0.438857L227.913143 621.714286l130.925714 166.4a31.670857 31.670857 0 0 1-7.826286 46.372571l-0.512 0.365714a38.838857 38.838857 0 0 1-50.688-7.168l-0.365714-0.438857-146.285714-186.002285a31.158857 31.158857 0 0 1-0.292572-38.765715l0.292572-0.292571 146.285714-186.002286zM541.184 426.130286c6.509714-17.700571 29.403429-27.794286 51.2-22.454857 21.577143 5.266286 33.865143 23.625143 27.794286 41.179428l-0.219429 0.512-137.142857 371.931429c-6.509714 17.700571-29.403429 27.794286-51.2 22.454857-21.577143-5.266286-33.865143-23.625143-27.794286-41.179429l0.219429-0.512 137.142857-371.931428zM724.553143 416.182857a38.765714 38.765714 0 0 0-51.053714-7.606857 31.670857 31.670857 0 0 0-8.704 46.299429l0.365714 0.438857 130.925714 166.4-130.925714 166.4a31.670857 31.670857 0 0 0 7.826286 46.372571l0.512 0.365714c16.237714 10.678857 38.765714 7.460571 50.688-7.168l0.365714-0.438857 146.285714-186.002285a31.158857 31.158857 0 0 0 0.292572-38.765715l-0.292572-0.292571-146.285714-186.002286z" fill="#666666" p-id="1107" data-spm-anchor-id="a313x.7781069.0.i0" class="selected"></path></svg>